# xmcd CD database file
#
# Track frame offsets:
#	150
#	5703
#	22131
#	50678
#	52692
#	68833
#	81279
#	100867
#	103953
#	140327
#	143494
#	176097
#	177213
#	202097
#	204058
#	221569
#	222830
#	240111
#	242051
#	306575
#
# Disc length: 4131 seconds
#
# Revision: 0
# Processed by: cddbd v1.5.1PL0 Copyright (c) Steve Scherf et al.
# Submitted via: CDex 1.51
#
DISCID=20102114
DTITLE=Duke Ellington - Newport 1956 (complete) disc 1
DYEAR=1900
DGENRE=Jazz
TTITLE0=01 - Star Spangled Banner
TTITLE1=02 - Fr N O'Connor-Duke Introduces Tune and Anderson, Jackson and Procope
TTITLE2=03 - Black And Tan Fantasy
TTITLE3=04 - Duke Introduces Cook and Tune
TTITLE4=05 - Tea For Two
TTITLE5=06 - Duke and Band Leave Stage-F N O'Connor Talks About The Festival
TTITLE6=07 - Take The A Train
TTITLE7=08 - Duke Announces A Train and Nance etc
TTITLE8=09 - Part I - Festival Junction (Live)
TTITLE9=10 - Duke Announces Soloists - Introduces Part II (Live)
TTITLE10=11 - Part II - Blues To Be There (Live)
TTITLE11=12 - Duke ann. Nance and Procope - Introduces Part III (Live)
TTITLE12=13 - Part III - Newport Up (Live)
TTITLE13=14 - Duke ann. Ham, Gon, and Terry-Introduces Carney and Tune (Live)
TTITLE14=15 - Sophisticated Lady (Live)
TTITLE15=16 - Duke Announces Grissom and Tune (Live)
TTITLE16=17 - Day In, Day Out (Live)
TTITLE17=18 - Duke Introduces Tune(S) And Paul Gonsalves Interludes (Live)
TTITLE18=19 - Diminuendo In Blue And Crescendo In Blue (Live)
TTITLE19=20 - Announcements, Pandemonium (Live)
EXTD=
EXTT0=
EXTT1=
EXTT2=
EXTT3=
EXTT4=
EXTT5=
EXTT6=
EXTT7=
EXTT8=
EXTT9=
EXTT10=
EXTT11=
EXTT12=
EXTT13=
EXTT14=
EXTT15=
EXTT16=
EXTT17=
EXTT18=
EXTT19=
PLAYORDER=
